<?xml version="1.0" encoding="utf-8"?>
<!-- Generator: Adobe Illustrator 16.0.0, SVG Export Plug-In . SVG Version: 6.00 Build 0)  -->
<!DOCTYPE svg PUBLIC "-//W3C//DTD SVG 1.1//EN" "http://www.w3.org/Graphics/SVG/1.1/DTD/svg11.dtd">
<svg version="1.1" id="Layer_1" xmlns="http://www.w3.org/2000/svg" xmlns:xlink="http://www.w3.org/1999/xlink" x="0px" y="0px"
	 width="800px" height="800px" viewBox="0 0 800 800" enable-background="new 0 0 800 800" xml:space="preserve">
<title>/svg/ic-poo</title>
<desc>Created with Sketch.</desc>
<g>
	<path fill="#6A381F" d="M567.655,699.999c-5.098,0-10.193-1.937-14.094-5.809l-64.745-64.296
		c-7.837-7.783-7.882-20.446-0.099-28.284c7.783-7.837,20.446-7.882,28.284-0.099l50.653,50.301L699.24,521.141
		c7.837-7.782,20.499-7.741,28.284,0.099c7.783,7.838,7.739,20.501-0.099,28.284L581.746,694.19
		C577.848,698.063,572.75,699.999,567.655,699.999z"/>
</g>
<g>
	<circle fill="#6A381F" cx="666.666" cy="233.334" r="33.333"/>
	<circle fill="#6A381F" cx="466.665" cy="100" r="33.333"/>
	<path fill="#6A381F" d="M626.095,692.429c46.299-15.144,82.933-51.743,98.75-98.063L626.095,692.429z"/>
	<path fill="#6A381F" d="M467.676,651.182c-5.255-5.219-9.093-11.329-11.538-17.849H255.116c-59.037,0-88.449-26.946-88.449-60.185
		c0-33.239,22.663-75.231,111.11-75.231C200,466.667,138.889,416.666,255.117,362.5c116.226-54.167,0-108.333,50.438-162.5
		c83.334,189.583,216.667-8.333,161.11,100c-33.332,91.667,44.445-18.75,100,62.5c55.556,81.25-73.64,128.764-72.222,135.417
		c87.312-53.421,148.013-21.695,166.388,19.084l17.268-17.147c9.431-9.364,21.943-14.522,35.232-14.522
		c2.748,0,5.458,0.231,8.117,0.663c-14.26-31.604-40.449-55.588-73.604-69.129c3.455-28.865-4.18-59.865-26.148-91.994
		c-15.128-22.126-33.676-38.673-55.315-49.006c-6.783-3.239-13.389-5.783-19.913-8.756c-0.43-25.52-13.972-50.896-41.788-62.82
		c-17.62-7.553-32.012-6.952-46.767-3.155c-5.496,1.415-10.149,3.128-15.579,5.435c-2.226,0.945-14.283,6.398-17.546,7.753
		c-15.142,6.29-22.109,6.749-27.568,3.387c-8.7-5.358-19.402-18.98-30.635-44.537l-40.771-92.755l-69.048,74.15
		c-21.863,23.479-32.244,51.606-31.272,81.524c0.606,18.705,3.811,30.427,12.146,53.995c0.742,2.099,1.372,3.907,1.905,5.466
		c-3.035,1.787-7.183,3.999-12.592,6.52c-82.763,38.571-124.871,95.88-94.014,164.178c1.862,4.122,3.946,8.108,6.247,11.968
		C113.781,502.683,100,535.388,100,573.148C100,650.92,166.389,700,255.115,699.999h261.72L467.676,651.182z"/>
	<circle fill="#6A381F" cx="133.333" cy="200" r="33.333"/>
</g>
</svg>
