<?xml version="1.0" encoding="utf-8"?>
<!-- Generator: Adobe Illustrator 16.0.0, SVG Export Plug-In . SVG Version: 6.00 Build 0)  -->
<!DOCTYPE svg PUBLIC "-//W3C//DTD SVG 1.1//EN" "http://www.w3.org/Graphics/SVG/1.1/DTD/svg11.dtd">
<svg version="1.1" id="Layer_1" xmlns="http://www.w3.org/2000/svg" xmlns:xlink="http://www.w3.org/1999/xlink" x="0px" y="0px"
	 width="800px" height="800px" viewBox="0 0 800 800" enable-background="new 0 0 800 800" xml:space="preserve">
<title>/svg/ic-poo</title>
<desc>Created with Sketch.</desc>
<g>
	<g>
		<path fill="#6A381F" d="M728.625,445.334c-6.274-6.275-16.448-6.275-22.723,0l-34.892,34.892
			c-7.521-5.638-15.676-10.282-24.284-13.839c-13.499-5.582-28.108-8.495-43.08-8.493c-14.977-0.002-29.585,2.911-43.085,8.493
			c-13.501,5.577-25.889,13.822-36.452,24.391c-10.941,10.94-19.193,23.657-24.676,37.21c-5.486,13.556-8.221,27.943-8.222,42.325
			c0,14.383,2.734,28.771,8.222,42.325c3.552,8.782,8.273,17.208,14.129,25.032l-34.897,34.898c-6.275,6.274-6.275,16.448,0,22.725
			c6.275,6.274,16.448,6.274,22.724,0l34.892-34.892c7.521,5.637,15.675,10.281,24.284,13.839
			c13.499,5.581,28.108,8.494,43.08,8.492c14.977,0.002,29.585-2.911,43.085-8.492c13.5-5.577,25.888-13.823,36.452-24.39
			c10.941-10.94,19.192-23.659,24.676-37.211c5.486-13.556,8.221-27.943,8.222-42.325c0-14.383-2.735-28.771-8.222-42.326
			c-3.552-8.782-8.274-17.208-14.13-25.032l34.898-34.898C734.901,461.782,734.901,451.608,728.625,445.334z M529.224,600.582
			c-3.91-9.66-5.874-19.961-5.874-30.269s1.964-20.608,5.874-30.27c3.914-9.663,9.758-18.688,17.61-26.544
			c7.605-7.604,16.407-13.445,26.003-17.414c9.597-3.965,19.988-6.055,30.809-6.055c10.815,0.002,21.208,2.09,30.806,6.056
			c4.71,1.947,9.227,4.353,13.508,7.19L536.615,614.621C533.656,610.147,531.194,605.446,529.224,600.582z M678.069,600.582
			c-3.914,9.662-9.759,18.688-17.61,26.544c-7.605,7.604-16.408,13.446-26.003,17.414c-9.597,3.964-19.989,6.055-30.809,6.056
			c-10.815-0.003-21.208-2.092-30.807-6.057c-4.709-1.947-9.226-4.353-13.507-7.19l111.345-111.345
			c2.959,4.474,5.421,9.175,7.39,14.039c3.911,9.66,5.875,19.961,5.874,30.27C683.943,580.62,681.979,590.921,678.069,600.582z"/>
	</g>
</g>
<g>
	<path fill="#6A381F" d="M551.013,697.344c-3.781-1.563-7.492-3.298-11.121-5.198l-7.854,7.854h25.943
		C555.641,699.177,553.316,698.296,551.013,697.344z"/>
	<path fill="#6A381F" d="M642.783,609.446c5.266-5.269,9.344-11.411,12.114-18.251c1.033-2.554,1.859-5.169,2.498-7.828
		c-8.513,17.422-22.368,31.632-39.373,40.383c2.344-0.619,4.644-1.389,6.889-2.316C631.564,618.683,637.579,614.648,642.783,609.446
		z"/>
	<path fill="#6A381F" d="M725.464,506.574c2.053,3.923,3.912,7.941,5.57,12.041c0.161,0.397,0.311,0.798,0.468,1.195
		c-0.865-5.416-2.033-10.681-3.484-15.79L725.464,506.574z"/>
	<circle fill="#6A381F" cx="466.665" cy="100" r="33.333"/>
	<path fill="#6A381F" d="M448.959,683.93c0-10.971,4.271-21.284,12.029-29.04l20.838-20.839c-0.124-0.238-0.241-0.479-0.364-0.718
		H255.116c-59.037,0-88.449-26.946-88.449-60.185c0-33.239,22.663-75.231,111.11-75.231C200,466.667,138.889,416.666,255.117,362.5
		c116.226-54.167,0-108.333,50.438-162.5c83.334,189.583,216.667-8.333,161.11,100c-33.332,91.667,44.445-18.75,100,62.5
		c20.133,29.444,16,54.457,2.615,74.701c11.141-2.857,22.633-4.308,34.35-4.308c18.272,0,35.976,3.496,52.649,10.391
		c3.779,1.562,7.49,3.296,11.119,5.197l13.158-13.158c-9.864-7.4-20.834-13.606-32.712-18.458
		c3.455-28.865-4.18-59.865-26.148-91.994c-15.128-22.126-33.676-38.673-55.315-49.006c-6.783-3.239-13.389-5.783-19.913-8.756
		c-0.43-25.52-13.972-50.896-41.788-62.82c-17.62-7.553-32.012-6.952-46.767-3.155c-5.496,1.415-10.149,3.128-15.579,5.435
		c-2.226,0.945-14.283,6.398-17.546,7.753c-15.142,6.29-22.109,6.749-27.568,3.387c-8.7-5.358-19.402-18.98-30.635-44.537
		l-40.771-92.755l-69.048,74.15c-21.863,23.479-32.244,51.606-31.272,81.524c0.606,18.705,3.811,30.427,12.146,53.995
		c0.742,2.099,1.372,3.907,1.905,5.466c-3.035,1.787-7.183,3.999-12.592,6.52c-82.763,38.571-124.871,95.88-94.014,164.178
		c1.862,4.122,3.946,8.108,6.247,11.968C113.781,502.683,100,535.388,100,573.148C100,650.92,166.389,700,255.115,699.999h197.102
		C450.084,694.983,448.959,689.544,448.959,683.93z"/>
	<circle fill="#6A381F" cx="133.333" cy="200" r="33.333"/>
	<circle fill="#6A381F" cx="666.666" cy="233.334" r="33.333"/>
</g>
</svg>
