<svg xmlns="http://www.w3.org/2000/svg" version="1.1" xmlns:xlink="http://www.w3.org/1999/xlink" width="1000" height="1000"><style>
    #light-icon {
      display: inline;
    }
    #dark-icon {
      display: none;
    }

    @media (prefers-color-scheme: dark) {
      #light-icon {
        display: none;
      }
      #dark-icon {
        display: inline;
      }
    }
  </style><g id="light-icon"><svg xmlns="http://www.w3.org/2000/svg" version="1.1" xmlns:xlink="http://www.w3.org/1999/xlink" width="1000" height="1000"><g><g transform="matrix(1.25,0,0,1.25,0,0)"><svg xmlns="http://www.w3.org/2000/svg" version="1.1" xmlns:xlink="http://www.w3.org/1999/xlink" width="800px" height="800px"><svg version="1.1" id="Layer_1" xmlns="http://www.w3.org/2000/svg" xmlns:xlink="http://www.w3.org/1999/xlink" x="0px" y="0px" width="800px" height="800px" viewBox="0 0 800 800" enable-background="new 0 0 800 800" xml:space="preserve">
<title>/svg/ic-poo</title>
<desc>Created with Sketch.</desc>
<g id="Page-1">
	<g id="ic-poo">
		<path id="Combined-Shape" fill="#6A381F" d="M578.431,633.333c48.731,0,88.235-40.418,88.235-90.277S600,433.333,494.445,497.917
			c-1.418-6.653,127.777-54.167,72.222-135.417s-133.333,29.167-100-62.5c55.556-108.333-77.777,89.583-161.111-100
			c-50.439,54.167,65.787,108.333-50.439,162.5C138.889,416.666,200,466.667,277.778,497.917
			c-88.448,0-111.111,41.992-111.111,75.231s29.412,60.185,88.449,60.185H578.431z M566.382,275.865
			c21.64,10.333,40.188,26.88,55.316,49.006C643.667,357,651.301,388,647.846,416.865c50.954,20.812,85.487,66.268,85.487,126.19
			c0,86.341-69.007,156.944-154.902,156.944H255.115C166.389,700,100,650.92,100,573.148c0-37.76,13.781-70.465,39.188-94.93
			c-2.301-3.86-4.385-7.846-6.247-11.968c-30.858-68.298,11.251-125.607,94.013-164.178c5.41-2.521,9.557-4.733,12.592-6.52
			c-0.533-1.559-1.163-3.367-1.905-5.466c-8.336-23.568-11.54-35.29-12.147-53.995c-0.971-29.918,9.41-58.045,31.273-81.524
			l69.048-74.15l40.771,92.755c11.233,25.557,21.935,39.179,30.635,44.537c5.459,3.362,12.427,2.903,27.569-3.387
			c3.262-1.355,15.32-6.808,17.545-7.753c5.43-2.307,10.083-4.02,15.58-5.435c14.754-3.797,29.146-4.398,46.766,3.155
			c27.817,11.924,41.359,37.3,41.788,62.82C552.994,270.082,559.599,272.626,566.382,275.865z M466.666,133.333
			c-18.409,0-33.333-14.924-33.333-33.333s14.924-33.333,33.333-33.333S499.999,81.59,499.999,100S485.075,133.333,466.666,133.333z
			 M133.333,233.333C114.924,233.333,100,218.41,100,200s14.924-33.333,33.333-33.333S166.666,181.59,166.666,200
			S151.742,233.333,133.333,233.333z M666.666,266.667c-18.409,0-33.333-14.924-33.333-33.333c0-18.41,14.924-33.333,33.333-33.333
			S700,214.924,700,233.333C700,251.743,685.075,266.667,666.666,266.667z"></path>
	</g>
</g>
</svg></svg></g></g></svg></g><g id="dark-icon"><svg xmlns="http://www.w3.org/2000/svg" version="1.1" xmlns:xlink="http://www.w3.org/1999/xlink" width="1000" height="1000"><g><g transform="matrix(1.25,0,0,1.25,0,0)"><svg xmlns="http://www.w3.org/2000/svg" version="1.1" xmlns:xlink="http://www.w3.org/1999/xlink" width="800px" height="800px"><svg version="1.1" id="Layer_1" xmlns="http://www.w3.org/2000/svg" xmlns:xlink="http://www.w3.org/1999/xlink" x="0px" y="0px" width="800px" height="800px" viewBox="0 0 800 800" enable-background="new 0 0 800 800" xml:space="preserve">
<g id="Page-1">
	<g id="ic-poo">
		<path id="Combined-Shape" fill="#FFFFB3" d="M578.431,633.333c48.731,0,88.235-40.418,88.235-90.277S600,433.333,494.445,497.917
			c-1.418-6.653,127.777-54.167,72.222-135.417s-133.333,29.167-100-62.5c55.556-108.333-77.777,89.583-161.111-100
			c-50.439,54.167,65.787,108.333-50.439,162.5C138.889,416.666,200,466.667,277.778,497.917
			c-88.448,0-111.111,41.992-111.111,75.231s29.412,60.185,88.449,60.185H578.431z M566.382,275.865
			c21.64,10.333,40.188,26.88,55.316,49.006C643.667,357,651.301,388,647.846,416.865c50.954,20.812,85.487,66.268,85.487,126.19
			c0,86.341-69.007,156.944-154.902,156.944H255.115C166.389,700,100,650.92,100,573.148c0-37.76,13.781-70.465,39.188-94.93
			c-2.301-3.86-4.385-7.846-6.247-11.968c-30.858-68.298,11.251-125.607,94.013-164.178c5.41-2.521,9.557-4.733,12.592-6.52
			c-0.533-1.559-1.163-3.367-1.905-5.466c-8.336-23.568-11.54-35.29-12.147-53.995c-0.971-29.918,9.41-58.045,31.273-81.524
			l69.048-74.15l40.771,92.755c11.233,25.557,21.935,39.179,30.635,44.537c5.459,3.362,12.427,2.903,27.569-3.387
			c3.262-1.355,15.32-6.808,17.545-7.753c5.43-2.307,10.083-4.02,15.58-5.435c14.754-3.797,29.146-4.398,46.766,3.155
			c27.817,11.924,41.359,37.3,41.788,62.82C552.994,270.082,559.599,272.626,566.382,275.865z M466.666,133.333
			c-18.409,0-33.333-14.924-33.333-33.333s14.924-33.333,33.333-33.333S499.999,81.59,499.999,100S485.075,133.333,466.666,133.333z
			 M133.333,233.333C114.924,233.333,100,218.41,100,200s14.924-33.333,33.333-33.333S166.666,181.59,166.666,200
			S151.742,233.333,133.333,233.333z M666.666,266.667c-18.409,0-33.333-14.924-33.333-33.333c0-18.41,14.924-33.333,33.333-33.333
			S700,214.924,700,233.333C700,251.743,685.075,266.667,666.666,266.667z"></path>
	</g>
</g>
</svg></svg></g></g></svg></g></svg>